<svg xmlns:mydata="http://www.w3.org/2000/svg" mydata:contrastcolor="ffffff" mydata:template="Default"
     mydata:presentation="2.5" mydata:layouttype="undefined" mydata:specialfontid="undefined" mydata:id1="749"
     mydata:id2="062" mydata:companyname="stan voyage" mydata:companytagline="tours" version="1.1"
     xmlns="http://www.w3.org/2000/svg" xmlns:xlink="http://www.w3.org/1999/xlink" viewBox="0 45 550 380">
    <g fill="#01b3a7" fill-rule="none" stroke="none" stroke-width="1" stroke-linecap="butt" stroke-linejoin="miter"
       stroke-miterlimit="10" stroke-dasharray="" stroke-dashoffset="0" font-family="none" font-weight="none"
       font-size="none" text-anchor="none" style="mix-blend-mode: normal">
        <g data-paper-data="{&quot;isGlobalGroup&quot;:true,&quot;bounds&quot;:{&quot;x&quot;:91.1336691056236,&quot;y&quot;:115,&quot;width&quot;:367.7326617887528,&quot;height&quot;:240}}">
            <g data-paper-data="{&quot;isSecondaryText&quot;:true}" fill-rule="nonzero">
                <path d="M211.4718,346.46126v8.32664h-1.25892v-8.32664h-3.14045v-1.1426h7.53981v1.1426z"
                      data-paper-data="{&quot;glyphName&quot;:&quot;T&quot;,&quot;glyphIndex&quot;:0,&quot;firstGlyphOfWord&quot;:true,&quot;word&quot;:1}"></path>
                <path d="M241.14378,350.05328c0,1.70136 -0.32043,2.94887 -0.96129,3.74254c-0.64086,0.79366 -1.60443,1.1905 -2.89072,1.1905c-1.30453,0 -2.27266,-0.40367 -2.9044,-1.21102c-0.63174,-0.80735 -0.94761,-2.04802 -0.94761,-3.72201c0,-1.66031 0.31245,-2.89756 0.93735,-3.71175c0.6249,-0.81419 1.59645,-1.22129 2.91467,-1.22129c1.29997,0 2.26696,0.39911 2.90098,1.19734c0.63402,0.79823 0.95103,2.04346 0.95103,3.7357zM239.81645,350.05328c0,-1.30909 -0.19728,-2.27152 -0.59183,-2.8873c-0.39455,-0.61577 -1.03883,-0.92366 -1.93285,-0.92366c-0.89401,0 -1.5383,0.30789 -1.93285,0.92366c-0.39455,0.61577 -0.59183,1.57821 -0.59183,2.8873c0,1.31821 0.19956,2.28293 0.59867,2.89414c0.39911,0.61121 1.04111,0.91682 1.92601,0.91682c0.88033,0 1.52119,-0.30333 1.92258,-0.90998c0.40139,-0.60665 0.60209,-1.57365 0.60209,-2.90098z"
                      data-paper-data="{&quot;glyphName&quot;:&quot;O&quot;,&quot;glyphIndex&quot;:1,&quot;word&quot;:1}"></path>
                <path d="M270.06889,350.83326c0,1.03541 -0.11631,1.85188 -0.34894,2.44941c-0.23263,0.59753 -0.59867,1.03313 -1.09813,1.30681c-0.49946,0.27368 -1.19848,0.41052 -2.09705,0.41052c-0.89401,0 -1.59873,-0.13912 -2.11416,-0.41736c-0.51543,-0.27824 -0.88831,-0.7184 -1.11866,-1.32049c-0.23035,-0.60209 -0.34552,-1.41172 -0.34552,-2.42889v-5.5146h1.26576v5.37776c0,0.83016 0.07526,1.46988 0.22578,1.91916c0.15052,0.44929 0.38885,0.772 0.71498,0.96813c0.32613,0.19614 0.77656,0.2942 1.35128,0.2942c0.57928,0 1.03313,-0.09693 1.36155,-0.29078c0.32841,-0.19385 0.56674,-0.50288 0.71498,-0.92708c0.14824,-0.4242 0.22236,-1.06962 0.22236,-1.93627v-5.40513h1.26576z"
                      data-paper-data="{&quot;glyphName&quot;:&quot;U&quot;,&quot;glyphIndex&quot;:2,&quot;word&quot;:1}"></path>
                <path d="M297.61388,354.7879l-2.4152,-3.86569h-1.64891v3.86569h-1.26576v-9.46924h2.94203c1.17681,0 2.02065,0.21666 2.53152,0.64998c0.51086,0.43332 0.7663,1.10383 0.7663,2.01153c0,0.77542 -0.15622,1.38891 -0.46867,1.84048c-0.31245,0.45157 -0.81989,0.75261 -1.52233,0.90314l2.56573,4.06411zM297.21705,348.07596c0,-0.6249 -0.1585,-1.0548 -0.47551,-1.28971c-0.31701,-0.23491 -0.82673,-0.35236 -1.52917,-0.35236h-1.66259v3.36623h1.58049c0.52911,0 0.94533,-0.05588 1.24865,-0.16763c0.30333,-0.11175 0.51885,-0.28964 0.64656,-0.53367c0.12772,-0.24403 0.19157,-0.58499 0.19157,-1.02287z"
                      data-paper-data="{&quot;glyphName&quot;:&quot;R&quot;,&quot;glyphIndex&quot;:3,&quot;word&quot;:1}"></path>
                <path d="M324.77762,352.19481c0,0.88489 -0.29078,1.57136 -0.87235,2.05942c-0.58156,0.48806 -1.43111,0.73209 -2.54862,0.73209c-0.85296,0 -1.56452,-0.15052 -2.13468,-0.45157c-0.57016,-0.30105 -1.03541,-0.76858 -1.39576,-1.4026l1.02629,-0.68419c0.53367,0.94419 1.35926,1.41628 2.47678,1.41628c0.67051,0 1.19848,-0.14026 1.58391,-0.42078c0.38543,-0.28052 0.57814,-0.66481 0.57814,-1.15287c0,-0.27824 -0.06158,-0.51315 -0.18473,-0.70472c-0.12315,-0.19157 -0.28508,-0.35236 -0.48578,-0.48236c-0.2007,-0.13 -0.43104,-0.23491 -0.69104,-0.31473c-0.25999,-0.07982 -0.53139,-0.15622 -0.81419,-0.2292c-0.46525,-0.11403 -0.89857,-0.23149 -1.29997,-0.35236c-0.40139,-0.12087 -0.74919,-0.2771 -1.0434,-0.46867c-0.2942,-0.19157 -0.52569,-0.43674 -0.69446,-0.73551c-0.16877,-0.29876 -0.25315,-0.68305 -0.25315,-1.15287c0,-0.83928 0.27026,-1.50409 0.81077,-1.99442c0.54051,-0.49034 1.349,-0.73551 2.42547,-0.73551c0.85752,0 1.54172,0.1585 2.05258,0.47551c0.51086,0.31701 0.91454,0.72411 1.21102,1.22129l-1.00576,0.71156c-0.24631,-0.41052 -0.54621,-0.72753 -0.89971,-0.95103c-0.3535,-0.2235 -0.80621,-0.33525 -1.35812,-0.33525c-0.61577,0 -1.09471,0.1357 -1.43681,0.4071c-0.3421,0.2714 -0.51315,0.63516 -0.51315,1.09129c0,0.24175 0.05131,0.44473 0.15394,0.60893c0.10263,0.16421 0.24973,0.30219 0.4413,0.41394c0.19157,0.11175 0.4299,0.20754 0.71498,0.28736c0.28508,0.07982 0.61007,0.16535 0.97498,0.25657c0.42876,0.11403 0.837,0.23377 1.22471,0.3592c0.38771,0.12544 0.72639,0.29078 1.01603,0.49604c0.28964,0.20526 0.51885,0.46981 0.68761,0.79366c0.16877,0.32385 0.25315,0.73665 0.25315,1.23839z"
                      data-paper-data="{&quot;glyphName&quot;:&quot;S&quot;,&quot;glyphIndex&quot;:4,&quot;lastGlyphOfWord&quot;:true,&quot;word&quot;:1}"></path>
            </g>
            <g data-paper-data="{&quot;isPrimaryText&quot;:true}" fill-rule="nonzero">
                <path d="M112.91755,313.83052v0c2.21297,0.50714 4.10897,1.63667 5.68801,3.3886c1.57904,1.75193 2.48382,3.72285 2.71434,5.91277c0.09221,1.47531 -0.3112,2.82384 -1.21022,4.04558c-0.89902,1.22174 -2.24178,2.20144 -4.02829,2.9391c-1.78651,0.73766 -3.94761,1.10648 -6.4833,1.10648c-2.76621,0 -5.38834,-0.58782 -7.8664,-1.76346c-2.47806,-1.17564 -4.63916,-2.68553 -6.4833,-4.52966c-1.84414,-1.84414 -3.21572,-3.81506 -4.11473,-5.91277v8.99017c2.25907,1.42921 5.06562,2.66824 8.41964,3.71709c3.35403,1.04885 6.94433,1.57328 10.77092,1.57328c3.41166,0 6.35651,-0.60511 8.83457,-1.81532c2.47806,-1.21022 4.44322,-2.77773 5.89548,-4.70255c1.45226,-1.92482 2.34551,-4.011 2.67976,-6.25854c0.33425,-2.24754 0.06916,-4.44898 -0.79528,-6.60432c-0.86444,-2.15534 -2.38009,-4.05134 -4.54695,-5.68801c-2.16686,-1.63667 -5.01375,-2.80078 -8.54066,-3.49234l-7.88369,-1.48684c-2.46653,-0.59934 -4.40288,-1.78075 -5.80903,-3.5442c-1.40616,-1.76346 -2.07466,-3.69404 -2.0055,-5.79175c0.06916,-2.09771 1.06038,-3.92456 2.97367,-5.48055c1.91329,-1.55599 4.9446,-2.41467 9.09391,-2.57603c2.48959,-0.02305 4.76594,0.49561 6.82907,1.55599c2.06313,1.06038 3.30216,2.47806 3.71709,4.25304c0.18441,0.96817 0.1095,1.87295 -0.22475,2.71434c-0.33425,0.84139 -0.8702,1.48107 -1.60786,1.91906c2.32822,0.76071 4.24152,0.54172 5.73988,-0.65697c1.49836,-1.19869 2.0516,-2.78926 1.65972,-4.77171c-0.55324,-1.91329 -1.65972,-3.37708 -3.31945,-4.39135c-1.65972,-1.01428 -3.67099,-1.71735 -6.03379,-2.10923c-2.3628,-0.39188 -4.85815,-0.57629 -7.48605,-0.55324c-5.14053,0.09221 -9.23798,1.37734 -12.29233,3.8554c-3.05435,2.47806 -4.89273,5.43444 -5.51513,8.86915c-0.6224,3.43471 0.14984,6.65042 2.3167,9.64715c2.16686,2.99672 5.88972,5.04833 11.16856,6.15481z"
                      data-paper-data="{&quot;glyphName&quot;:&quot;S&quot;,&quot;glyphIndex&quot;:0,&quot;firstGlyphOfWord&quot;:true,&quot;word&quot;:1}"></path>
                <path d="M151.2641,303.24978v0h-8.92102v20.9886c-0.02305,1.40616 0.24204,2.68553 0.79528,3.83811c0.55324,1.15259 1.47531,1.94787 2.76621,2.38585c1.31395,0.41493 3.10046,0.25357 5.35953,-0.48409c-2.07466,1.93634 -4.48356,3.11198 -7.22672,3.52691c-2.7201,0.41493 -5.11748,-0.08068 -7.19214,-1.48684c-2.07466,-1.3831 -3.15809,-3.82659 -3.25029,-7.33045v-21.43811c-0.34578,0 -0.64545,0 -0.89902,0c-0.25357,0 -0.57629,0 -0.96817,0c-0.39188,0 -0.96817,0 -1.72888,0l12.3442,-9.57799v7.50334h8.92102z"
                      data-paper-data="{&quot;glyphName&quot;:&quot;t&quot;,&quot;glyphIndex&quot;:1,&quot;word&quot;:1}"></path>
                <path d="M213.71122,333.26312v0v0h8.74813c0,-0.82986 0,-2.58756 0,-5.27308c0,-2.68553 0,-5.37105 0,-8.05658c0,-2.68553 0,-4.58153 0,-5.68801c-0.06916,-3.08893 -0.89902,-5.6592 -2.48959,-7.7108c-1.59057,-2.02855 -3.58454,-3.49234 -5.98192,-4.39135c-2.37433,-0.92207 -4.78323,-1.22174 -7.22672,-0.89902c-2.42043,0.29967 -4.49509,1.25632 -6.22397,2.86994v-3.04283l-8.74813,-0.03458v10.85736l-8.09116,6.60432v-1.10648c0.0461,-2.0516 -0.06916,-4.08016 -0.34578,-6.08566c-0.55324,-3.31945 -1.9594,-5.87819 -4.21847,-7.67622c-2.23602,-1.82109 -5.22122,-2.88147 -8.9556,-3.18114c-2.95062,-0.23052 -5.64767,0.17289 -8.09116,1.21022c-2.44348,1.06038 -3.99947,2.674 -4.66797,4.84086c-0.41493,1.93634 0.10373,3.37708 1.55599,4.3222c1.47531,0.94512 3.37708,1.00275 5.7053,0.17289c-1.17564,-0.50714 -1.86719,-1.44073 -2.07466,-2.80078c-0.18441,-1.36005 0.19594,-2.61637 1.14106,-3.76896c0.96817,-1.15259 2.60485,-1.67125 4.91002,-1.55599c1.91329,0.25357 3.35403,1.14106 4.3222,2.66247c0.96817,1.52141 1.48684,3.22724 1.55599,5.11748l0.17289,3.18114c-0.02305,0.06916 -0.10373,0.11526 -0.24204,0.13831c-0.16136,0 -0.34578,-0.01153 -0.55324,-0.03458c-3.04283,-0.29967 -6.05108,-0.12678 -9.02475,0.51866c-3.89574,1.01428 -6.61585,2.69705 -8.16031,5.04833c-1.54447,2.35128 -2.07466,4.77171 -1.59057,7.26129c0.46103,2.46653 1.78651,4.37983 3.97642,5.73988c2.18991,1.36005 5.07138,1.55599 8.6444,0.58782c1.77498,-0.55324 3.37708,-1.42921 4.80628,-2.6279l30.67032,-25.69115c0.99122,-0.6685 2.07466,-1.11801 3.25029,-1.34853c1.19869,-0.23052 2.33975,-0.13831 3.42318,0.27662c1.08343,0.41493 1.98245,1.23327 2.69705,2.45501c0.7146,1.24479 1.07191,3.01978 1.07191,5.32495c0,0.18441 0,0.6685 0,1.45226c0,0.82986 0,2.40891 0,4.73713c0,2.32822 0,4.76018 0,7.29587c0,1.86719 0.00576,3.54997 0.01729,5.04833c0.01153,1.49836 0.01729,2.58179 0.01729,3.25029zM191.82361,333.26312v0v0l-0.03458,-16.38978l1.76346,-1.45226c1.89024,-1.40616 3.53268,-1.84414 4.92731,-1.31395c1.39463,0.53019 2.09194,1.71735 2.09194,3.56149v15.59449zM175.22637,330.94642v0v0l8.47151,-7.19214c0,3.18114 0,6.36228 0,9.54341c-2.83536,0 -5.6592,0 -8.47151,0zM174.94975,325.48317v0c-1.17564,1.65972 -2.70858,2.78926 -4.59882,3.3886c-1.89024,0.59934 -3.73438,0.3112 -5.53241,-0.86444c-1.36005,-1.12953 -2.15534,-2.53569 -2.38585,-4.21847c-0.23052,-1.68278 0.23052,-3.28487 1.3831,-4.80628c1.15259,-1.49836 3.11198,-2.55874 5.87819,-3.18114c1.77498,-0.32272 3.48081,-0.39188 5.11748,-0.20747z"
                      data-paper-data="{&quot;glyphName&quot;:&quot;î…&quot;,&quot;glyphIndex&quot;:2,&quot;lastGlyphOfWord&quot;:true,&quot;word&quot;:1}"></path>
                <path d="M253.64834,283.67886v0l16.83929,49.48053h2.24754l16.80471,-49.48053h-2.21297l-12.17131,36.34105l-12.24047,-36.34105z"
                      data-paper-data="{&quot;glyphName&quot;:&quot;V&quot;,&quot;glyphIndex&quot;:3,&quot;firstGlyphOfWord&quot;:true,&quot;word&quot;:2}"></path>
                <path d="M311.53122,301.07139v0v0c-2.97367,0 -5.68225,0.72613 -8.12573,2.17839c-2.44348,1.45226 -4.39135,3.40013 -5.84361,5.84361c-1.45226,2.44348 -2.17839,5.15206 -2.17839,8.12573c0,2.97367 0.72613,5.68225 2.17839,8.12573c1.45226,2.44348 3.40013,4.39135 5.84361,5.84361c2.44348,1.45226 5.15206,2.17839 8.12573,2.17839c2.97367,0 5.68225,-0.72613 8.12573,-2.17839c2.44348,-1.45226 4.39135,-3.40013 5.84361,-5.84361c1.45226,-2.44348 2.17839,-5.15206 2.17839,-8.12573c0,-2.97367 -0.72613,-5.68225 -2.17839,-8.12573c-1.45226,-2.44348 -3.40013,-4.39135 -5.84361,-5.84361c-2.44348,-1.45226 -5.15206,-2.17839 -8.12573,-2.17839zM311.53122,303.04231v0c2.02855,0 3.76319,1.3831 5.20393,4.14931c1.44073,2.76621 2.1611,6.10871 2.1611,10.0275c0,3.91879 -0.72037,7.26129 -2.1611,10.0275c-1.44073,2.76621 -3.17538,4.14931 -5.20393,4.14931c-2.02855,0 -3.76896,-1.3831 -5.22122,-4.14931c-1.45226,-2.76621 -2.17839,-6.10871 -2.17839,-10.0275c0,-3.91879 0.72613,-7.26129 2.17839,-10.0275c1.45226,-2.76621 3.19266,-4.14931 5.22122,-4.14931z"
                      data-paper-data="{&quot;glyphName&quot;:&quot;o&quot;,&quot;glyphIndex&quot;:4,&quot;word&quot;:2}"></path>
                <path d="M328.47424,301.14054v0l12.6554,31.84596l-2.07466,6.05108c-0.64545,1.72888 -1.65972,2.88147 -3.04283,3.45776c-1.3831,0.57629 -2.71434,0.59358 -3.99371,0.05187c-1.27937,-0.54172 -2.10347,-1.63091 -2.4723,-3.26758c-1.47531,1.82109 -1.82109,3.67099 -1.03733,5.5497c0.78376,1.87872 2.18991,3.02554 4.21847,3.44047c2.35128,0.25357 4.22423,-0.44375 5.61886,-2.09194c1.39463,-1.6482 2.46077,-3.53268 3.19843,-5.65344l15.17956,-39.38387h-2.66247l-8.43693,21.26522l-8.43693,-21.26522z"
                      data-paper-data="{&quot;glyphName&quot;:&quot;y&quot;,&quot;glyphIndex&quot;:5,&quot;word&quot;:2}"></path>
                <path d="M386.80663,311.37551v0v0c0.27662,2.0055 0.39188,4.02253 0.34578,6.05108c0,5.44021 0,10.89194 0,16.3552h-8.74813v-6.18939c-1.63667,2.74316 -4.03405,4.58729 -7.19214,5.53241c-4.79476,1.19869 -8.30438,0.50138 -10.52888,-2.09194c-2.22449,-2.59332 -2.78926,-5.63038 -1.6943,-9.11119c1.09496,-3.48081 4.2127,-5.94735 9.35324,-7.3996c1.47531,-0.34578 2.97367,-0.55324 4.49509,-0.6224h3.63065c0.06916,0 0.17289,0.01153 0.3112,0.03458c0.18441,0.02305 0.38035,0.0461 0.58782,0.06916c0.20747,0.02305 0.39188,0.02881 0.55324,0.01729c0.16136,-0.01153 0.24204,-0.05187 0.24204,-0.12102l-0.13831,-3.18114c-0.09221,-1.89024 -0.6224,-3.59607 -1.59057,-5.11748c-0.96817,-1.52141 -2.40891,-2.40891 -4.3222,-2.66247c-2.30517,-0.11526 -3.93608,0.43798 -4.89273,1.65972c-0.95665,1.22174 -1.337,2.54145 -1.14106,3.95913c0.19594,1.41768 0.88173,2.39162 2.05737,2.92181c-2.32822,0.78376 -4.22423,0.64545 -5.68801,-0.41493c-1.46378,-1.06038 -1.98821,-2.57027 -1.57328,-4.52966c0.6685,-2.16686 2.23025,-3.76896 4.68526,-4.80628c2.45501,-1.03733 5.1463,-1.44073 8.07387,-1.21022c7.56097,0.59934 11.95232,4.21847 13.17406,10.85736zM378.30055,315.62855v0c-1.65972,-0.16136 -3.37708,-0.08068 -5.15206,0.24204c-4.10321,1.01428 -6.46025,2.84689 -7.07112,5.49784c-0.61087,2.65095 0.12102,4.88697 2.19568,6.70805c1.61362,1.15259 3.40589,1.45226 5.37682,0.89902c1.97092,-0.55324 3.55573,-1.6943 4.75442,-3.42318z"
                      data-paper-data="{&quot;glyphName&quot;:&quot;a&quot;,&quot;glyphIndex&quot;:6,&quot;word&quot;:2}"></path>
                <path d="M408.14101,301.5209v0v0c-2.97367,0 -5.67649,0.57629 -8.10844,1.72888c-2.43196,1.15259 -4.37407,2.69705 -5.82632,4.6334c-1.45226,1.93634 -2.17839,4.09168 -2.17839,6.46601c0,2.76621 0.98546,5.23274 2.95638,7.3996c1.97092,2.16686 4.54695,3.72285 7.72809,4.66797c-3.15809,0.0461 -5.60157,0.73189 -7.33045,2.05737c-1.72888,1.32547 -2.45501,2.8757 -2.17839,4.65069c0.36883,1.40616 1.23327,2.50111 2.59332,3.28487c1.56752,0.92207 3.26182,1.41768 5.08291,1.48684l12.48251,0.93359c2.35128,0.20747 3.79777,0.72613 4.33949,1.55599c0.54172,0.82986 0.38612,1.75769 -0.4668,2.7835c-0.85291,1.0258 -2.19568,1.92482 -4.02829,2.69705c-1.83261,0.77223 -3.91303,1.15835 -6.24125,1.15835c-1.24479,0 -2.69705,-0.28238 -4.35678,-0.84715c-1.65972,-0.56477 -2.97367,-1.4926 -3.94185,-2.7835c-0.96817,-1.2909 -1.16411,-3.00825 -0.58782,-5.15206c-1.61362,0 -2.8757,0.54172 -3.78625,1.62515c-0.91054,1.08343 -1.16411,2.33975 -0.76071,3.76896c0.40341,1.42921 1.75769,2.66247 4.06287,3.6998c2.30517,1.03733 5.86666,1.52141 10.68448,1.45226c2.53569,-0.09221 4.93307,-0.58782 7.19214,-1.48684c2.25907,-0.89902 4.10321,-2.115 5.53241,-3.64794c1.42921,-1.53294 2.13228,-3.30216 2.10923,-5.30766c-0.0461,-1.82109 -0.80681,-3.49234 -2.28212,-5.01375c-1.47531,-1.52141 -3.76896,-2.47806 -6.88094,-2.86994l-11.68723,-0.79528c-1.19869,-0.11526 -1.78651,-0.38035 -1.76346,-0.79528c0.02305,-0.59934 0.51866,-1.02004 1.48684,-1.26208c0.96817,-0.24204 2.02855,-0.38035 3.18114,-0.41493c1.15259,-0.03458 2.04008,-0.05187 2.66247,-0.05187c0.13831,0 0.24204,0 0.3112,0c2.97367,0 5.68225,-0.57629 8.12573,-1.72888c2.44348,-1.15259 4.39135,-2.69705 5.84361,-4.6334c1.45226,-1.93634 2.17839,-4.08016 2.17839,-6.43143c0,-2.85841 -1.03733,-5.3941 -3.11198,-7.60707c-2.07466,-2.21297 -4.77171,-3.75743 -8.09116,-4.6334l-1.52141,-0.27662c1.47531,-2.07466 3.01978,-3.23877 4.6334,-3.49234c1.61362,-0.25357 2.99096,0.05187 4.13202,0.91631c1.14106,0.86444 1.73464,1.93058 1.78075,3.19843c1.24479,-1.03733 1.95363,-2.20144 2.12652,-3.49234c0.17289,-1.2909 -0.06339,-2.4723 -0.70884,-3.5442c-0.64545,-1.07191 -1.60209,-1.8038 -2.86994,-2.19568c-1.77498,-0.41493 -3.41742,-0.20747 -4.92731,0.6224c-1.50989,0.82986 -2.85265,1.96516 -4.02829,3.40589c-1.17564,1.44073 -2.14381,2.86418 -2.90452,4.27033c-0.20747,0 -0.42646,0 -0.65697,0zM408.14101,303.07689v0c2.0516,0 3.79777,1.10072 5.2385,3.30216c1.44073,2.20144 2.1611,4.85815 2.1611,7.97013c0,3.08893 -0.72037,5.73412 -2.1611,7.93556c-1.44073,2.20144 -3.1869,3.30216 -5.2385,3.30216c-2.02855,0 -3.76319,-1.10072 -5.20393,-3.30216c-1.44073,-2.20144 -2.1611,-4.84663 -2.1611,-7.93556c0,-3.11198 0.72037,-5.76869 2.1611,-7.97013c1.44073,-2.20144 3.17538,-3.30216 5.20393,-3.30216z"
                      data-paper-data="{&quot;glyphName&quot;:&quot;g&quot;,&quot;glyphIndex&quot;:7,&quot;word&quot;:2}"></path>
                <path d="M435.38815,317.66863v0v0c0.09221,2.7201 0.69731,5.20393 1.81532,7.45147c1.11801,2.24754 2.80655,3.84388 5.06562,4.789c2.09771,0.73766 4.2127,0.98546 6.34499,0.74342c2.13228,-0.24204 3.9015,-0.69731 5.30766,-1.36581c-1.47531,1.40616 -3.16385,2.51264 -5.06562,3.31945c-1.90177,0.80681 -3.94761,1.21022 -6.13752,1.21022c-2.97367,0 -5.68225,-0.72613 -8.12573,-2.17839c-2.44348,-1.45226 -4.39135,-3.40013 -5.84361,-5.84361c-1.45226,-2.44348 -2.17839,-5.15206 -2.17839,-8.12573c0,-2.97367 0.72613,-5.68225 2.17839,-8.12573c1.45226,-2.44348 3.40013,-4.39135 5.84361,-5.84361c2.44348,-1.45226 5.15206,-2.17839 8.12573,-2.17839c2.97367,0 5.68225,0.72613 8.12573,2.17839c2.44348,1.45226 4.39135,3.40013 5.84361,5.84361c1.45226,2.44348 2.17839,5.15206 2.17839,8.12573zM450.01447,315.59397v0c-0.06916,-1.06038 -0.23052,-2.25907 -0.48409,-3.59607c-0.25357,-1.337 -0.65121,-2.63942 -1.19293,-3.90727c-0.54172,-1.26784 -1.26784,-2.32246 -2.17839,-3.16385c-0.91054,-0.84139 -2.06889,-1.26208 -3.47505,-1.26208c-1.26784,0 -2.35704,0.41493 -3.26758,1.24479c-0.91054,0.82986 -1.65396,1.87872 -2.23025,3.14656c-0.57629,1.26784 -1.00851,2.57603 -1.29666,3.92456c-0.28815,1.34853 -0.45527,2.55298 -0.50138,3.61336z"
                      data-paper-data="{&quot;glyphName&quot;:&quot;e&quot;,&quot;glyphIndex&quot;:8,&quot;lastGlyphOfWord&quot;:true,&quot;word&quot;:2}"></path>
            </g>
            <g data-paper-data="{&quot;isIcon&quot;:&quot;true&quot;,&quot;iconType&quot;:&quot;icon&quot;,&quot;rawIconId&quot;:&quot;3202994&quot;,&quot;selectedEffects&quot;:{&quot;container&quot;:&quot;&quot;,&quot;transformation&quot;:&quot;&quot;,&quot;pattern&quot;:&quot;&quot;},&quot;isDetailed&quot;:false,&quot;fillRule&quot;:&quot;evenodd&quot;,&quot;bounds&quot;:{&quot;x&quot;:196.1089633602717,&quot;y&quot;:115,&quot;width&quot;:157.78207327945657,&quot;height&quot;:138.18386728817129},&quot;iconStyle&quot;:&quot;standalone&quot;,&quot;suitableAsStandaloneIcon&quot;:true}"
               fill-rule="evenodd">
                <path d="M329.31024,115c-13.61909,0 -24.58078,10.9617 -24.58078,24.58078c0,21.09297 22.58775,44.34506 23.58427,45.34157c0.33217,0.33217 0.66435,0.33217 0.99652,0.33217c0.33217,0 0.66435,-0.16609 0.99652,-0.33217c0.99652,-0.99652 23.58427,-24.08253 23.58427,-45.34157c0,-13.61909 -10.9617,-24.58078 -24.58078,-24.58078zM329.31024,152.03727c-6.80954,0 -12.45648,-5.64693 -12.45648,-12.45648c0,-6.80954 5.64693,-12.45648 12.45648,-12.45648c6.80954,0 12.45648,5.64693 12.45648,12.45648c0,6.80954 -5.64693,12.45648 -12.45648,12.45648zM226.00452,167.15113c-16.44256,0 -29.89555,13.453 -29.89555,29.89555c0,25.74339 27.57034,53.81199 28.73294,54.97459c0.33217,0.33217 0.66435,0.49826 1.1626,0.49826c0.49826,0 0.83043,-0.16609 1.1626,-0.49826c1.1626,-1.1626 28.73294,-29.39729 28.73294,-54.97459c0,-16.60864 -13.453,-29.89555 -29.89555,-29.89555zM286.29387,198.04319l32.22076,-9.13475c-1.99304,-2.15912 -4.65042,-5.31476 -7.63997,-9.30084l-27.57034,7.80606c-5.31476,1.49478 -9.46692,5.81302 -10.62953,11.29388c-1.1626,5.48085 0.83043,11.12779 5.14868,14.61561l26.90599,21.9234c1.99304,1.49478 1.49478,3.48781 1.1626,4.31824c-0.33217,0.83043 -1.1626,2.49129 -3.6539,2.49129h-54.14416c-3.15564,4.48433 -6.14519,8.13823 -8.63649,11.12779h62.78065c6.47737,0 11.95822,-3.81999 14.11735,-9.96518c2.15912,-5.97911 0.33217,-12.62257 -4.65042,-16.60864l-26.90599,-21.75732c-1.66086,-1.32869 -1.49478,-3.15564 -1.32869,-3.81999c0.16609,-0.66435 0.66435,-2.32521 2.82347,-2.98955zM226.00452,212.16054c-8.30432,0 -15.11386,-6.80954 -15.11386,-15.11386c0,-8.30432 6.80954,-15.11386 15.11386,-15.11386c8.30432,0 15.11386,6.80954 15.11386,15.11386c0,8.30432 -6.80954,15.11386 -15.11386,15.11386z"
                      data-paper-data="{&quot;isPathIcon&quot;:true}"></path>
            </g>
        </g>
    </g>
</svg>