<?xml version="1.0" encoding="UTF-8"?>
<!DOCTYPE svg PUBLIC "-//W3C//DTD SVG 1.1//EN" "http://www.w3.org/Graphics/SVG/1.1/DTD/svg11.dtd">
<!-- Creator: CorelDRAW -->
<svg xmlns="http://www.w3.org/2000/svg" xml:space="preserve" width="90.8789mm" height="44.4368mm" version="1.1" style="shape-rendering:geometricPrecision; text-rendering:geometricPrecision; image-rendering:optimizeQuality; fill-rule:evenodd; clip-rule:evenodd"
viewBox="0 0 7679.11 3754.83"
 xmlns:xlink="http://www.w3.org/1999/xlink"
 xmlns:xodm="http://www.corel.com/coreldraw/odm/2003">
 <defs>
  <style type="text/css">
   <![CDATA[
    .fil1 {fill:#85B1DF}
    .fil2 {fill:#2C4691}
    .fil0 {fill:#2C4691;fill-rule:nonzero}
   ]]>
  </style>
 </defs>
 <g id="Слой_x0020_1">
  <metadata id="CorelCorpID_0Corel-Layer"/>
  <path class="fil0" d="M835.12 3004.39c-10.84,80.54 -44.53,148.3 -101.06,203.29 -56.54,54.97 -116.17,92.54 -178.91,112.68 -62.73,20.14 -124.29,30.19 -184.7,30.19 -41.81,0 -91.77,-7.73 -149.86,-23.24 -58.08,-15.48 -95.64,-36.38 -112.68,-62.71l0 4.65c0,17.04 -9.29,25.56 -27.88,25.56l-67.38 -2.34c-10.85,0 -14.72,-3.87 -11.61,-11.61l55.75 -427.49c3.09,-17.03 12.39,-25.55 27.88,-25.55l25.55 0c12.39,0 18.59,6.96 18.59,20.9 -6.2,240.08 65.82,362.43 216.08,367.1 49.57,0 92.93,-12.02 130.11,-36.03 37.17,-24.01 58.85,-59.23 65.05,-105.7 6.2,-43.38 -19.36,-86.76 -76.67,-130.11 -100.67,-68.16 -182.77,-124.7 -246.28,-169.62 -102.23,-75.88 -144.81,-161.07 -127.78,-255.56 10.83,-69.71 42.59,-128.56 95.26,-176.6 52.66,-48.01 108.81,-80.53 168.45,-97.58 59.62,-17.02 119.64,-25.55 180.06,-25.55 44.91,0 96.8,8.9 155.66,26.73 58.85,17.8 96.81,41.45 113.84,70.85l0 -4.63c3.09,-17.05 13.16,-25.55 30.2,-25.55l65.06 2.32c10.84,0 14.71,3.85 11.62,11.63l-53.44 367.08c-3.09,17.05 -13.16,25.55 -30.2,25.55l-25.56 0c-13.93,0 -19.37,-6.96 -16.27,-20.89 1.55,-29.46 0.39,-57.72 -3.49,-84.81 -3.87,-27.11 -12,-59.64 -24.39,-97.58 -12.39,-37.97 -35.23,-68.93 -68.54,-92.95 -33.3,-24 -74.73,-37.56 -124.3,-40.65 -113.08,0 -181.22,37.18 -204.45,111.5 -6.2,20.16 -3.1,40.29 9.29,60.42 12.39,20.14 23.62,33.31 33.67,39.51 10.07,6.19 25.95,16.26 47.64,30.18 13.93,9.31 52.27,32.17 115.01,68.57 62.72,36.4 104.94,61.54 126.62,75.48 109.97,72.82 157.99,160.33 144.04,262.56z"/>
  <path class="fil0" d="M915.28 2704.66c-9.29,0 -12.39,-6.19 -9.29,-18.59l11.62 -67.38c3.1,-12.39 7.75,-18.59 13.94,-18.59 48.02,-6.19 87.9,-19.75 119.65,-40.64 31.75,-20.92 52.68,-39.89 62.73,-56.96 10.07,-17.02 22.86,-42.59 38.34,-76.64 13.94,-34.09 37.96,-61.57 72.03,-82.5 34.07,-20.92 65.84,-31.36 95.26,-31.36 13.94,0 24.39,2.32 31.36,6.95 6.98,4.68 9.69,12.42 8.14,23.24 -1.55,7.76 -4.65,24.81 -9.29,51.14 -4.65,26.31 -10.45,60.4 -17.43,102.23 -6.96,41.81 -13.55,79.75 -19.75,113.84l157.99 -2.32c9.29,0 12.39,6.2 9.29,18.59l-9.29 60.4c-3.09,12.4 -9.29,18.59 -18.59,18.59l-157.99 0 -55.75 302.03c-29.42,128.57 -22.46,194.41 20.9,197.5 29.44,0 61.19,-17.04 95.26,-51.13 3.09,-3.09 6.2,-4.63 9.29,-4.63 9.29,0 12.39,5.42 9.29,16.27 -13.94,38.73 -43.36,75.9 -88.28,111.52 -44.92,35.62 -103.78,53.44 -176.58,53.44 -55.75,0 -99.13,-16.65 -130.11,-49.95 -30.98,-33.31 -41.05,-81.73 -30.2,-145.21l74.34 -429.83 -106.87 0z"/>
  <path class="fil0" d="M2130.69 3262.28c4.65,0 5.42,3.1 2.32,9.29 -7.74,17.03 -25.55,31.75 -53.44,44.13 -27.87,12.39 -57.31,18.6 -88.28,18.6 -48.01,0 -87.13,-17.03 -117.33,-51.1 -30.22,-34.09 -39.89,-82.1 -29.04,-144.06l44.14 -246.3c-4.65,4.66 -16.26,13.16 -34.85,25.59 -94.49,61.95 -147.15,126.22 -157.99,192.83 -12.39,61.95 4.65,100.66 51.12,116.17 1.54,0 3.87,0.37 6.96,1.15 3.09,0.79 6.2,1.17 9.29,1.17 6.2,0 17.03,-1.55 32.53,-4.65l4.65 0c6.19,0 10.83,1.55 13.93,4.65 3.11,6.19 2.33,11.61 -2.32,16.26 -17.03,27.88 -46.85,51.11 -89.45,69.69 -42.6,18.6 -81.71,27.89 -117.33,27.89 -66.6,-3.09 -120.04,-24.01 -160.31,-62.74 -40.26,-38.72 -52.66,-90.61 -37.17,-155.66 12.39,-57.32 41.05,-103 85.96,-137.09 44.92,-34.05 113.08,-68.91 204.46,-104.56l34.86 -13.93c109.97,-43.36 171.92,-90.6 185.86,-141.74 6.2,-23.22 3.87,-44.92 -6.96,-65.03 -12.39,-13.94 -30.98,-20.92 -55.77,-20.92 -27.88,0 -49.57,9.31 -65.05,27.87 -13.94,12.39 -22.46,27.12 -25.57,44.14 -3.09,29.46 6.98,46.47 30.22,51.12 3.09,0 4.65,3.11 4.65,9.29 -7.76,20.14 -25.17,39.11 -52.28,56.94 -27.11,17.8 -58.48,26.69 -94.11,26.69 -49.56,0 -84.41,-14.72 -104.54,-44.12 -17.04,-23.24 -21.69,-50.36 -13.94,-81.32 17.03,-63.53 60.8,-110.76 131.27,-141.72 70.47,-30.99 142.12,-46.47 214.9,-46.47 122.37,0 208.34,31.74 257.91,95.26 40.27,52.64 51.12,122.35 32.53,209.1 -1.55,10.85 -4.65,27.49 -9.29,49.95 -4.65,22.46 -8.52,39.11 -11.63,49.95 -10.83,46.47 -18.97,83.27 -24.39,110.36 -5.42,27.11 -10.45,57.69 -15.1,91.77 -4.65,34.07 -5.42,60.4 -2.32,79.01 3.09,18.58 10.06,29.43 20.9,32.52z"/>
  <path class="fil0" d="M3005.17 3153.06c-6.2,35.65 -7.36,63.91 -3.49,84.81 3.87,20.92 9.68,35.62 17.42,44.15 7.76,8.52 15.12,14.71 22.08,18.59 6.96,3.87 9.68,7.36 8.14,10.45l0 9.29c-3.11,6.19 -6.98,9.29 -11.63,9.29l-401.94 0c-1.55,0 -3.09,-0.79 -4.65,-2.34 -1.55,-1.54 -1.55,-3.09 0,-4.63l0 -11.62c0,-3.09 6.58,-7.35 19.75,-12.78 13.16,-5.42 27.88,-18.58 44.14,-39.49 16.27,-20.92 27.5,-50.74 33.69,-89.45l37.18 -213.75c10.83,-61.98 17.03,-93.71 18.59,-95.25 10.83,-68.16 6.19,-113.85 -13.94,-137.09 -10.85,-15.48 -29.42,-23.24 -55.77,-23.24 -26.33,0 -48.79,9.29 -67.38,27.87 -26.33,20.14 -46.46,53.45 -60.4,99.93 -7.75,41.81 -16.65,90.98 -26.72,147.53 -10.07,56.54 -17.81,99.89 -23.24,130.1 -5.42,30.21 -8.13,46.08 -8.13,47.61 -6.19,35.65 -7.36,63.91 -3.49,84.81 3.88,20.92 10.07,35.62 18.59,44.15 8.52,8.52 16.27,14.71 23.24,18.59 6.96,3.87 9.68,7.36 8.13,10.45l0 9.29c-3.1,6.19 -6.97,9.29 -11.62,9.29l-401.93 0c-1.55,0 -3.11,-0.79 -4.65,-2.34 -1.55,-1.54 -1.55,-3.09 0,-4.63l-2.33 -11.62c0,-1.54 6.98,-5.41 20.91,-11.61 13.94,-6.21 29.04,-19.75 45.31,-40.66 16.26,-20.92 27.49,-50.74 33.69,-89.45l76.67 -427.52c6.19,-46.44 -11.63,-69.68 -53.44,-69.68 -7.75,0 -10.07,-3.13 -6.98,-9.29l4.65 -25.55c0,-10.85 5.42,-16.29 16.27,-16.29 40.27,0 80.16,-6.58 119.65,-19.75 39.5,-13.15 76.67,-29.04 111.53,-47.63 34.85,-18.57 57.69,-29.42 68.54,-32.5 4.65,-1.55 10.84,-2.33 18.59,-2.33 24.77,0 30.2,27.11 16.26,81.3 0,3.11 -1.55,12.39 -4.65,27.9 55.77,-52.69 129.33,-80.56 220.73,-83.65 80.54,0 140.17,24.01 178.9,72.03 44.92,51.1 58.86,118.5 41.81,202.12l-58.07 334.56z"/>
  <path class="fil1" d="M3998.86 2388.06c-22.53,42.54 -55.34,104.33 -98.44,185.34 -83.64,157.2 -169.22,317.91 -256.73,482.09 -87.51,164.2 -135.14,254.04 -142.89,269.52 -3.1,3.09 -5.42,4.66 -6.97,4.66l-141.73 0c-3.09,0 -4.64,-1.56 -4.64,-4.66l-181.22 -1008.35c-4.65,-13.94 -10.85,-25.16 -18.59,-33.67 -7.74,-8.53 -14.72,-14.34 -20.9,-17.43 -6.2,-3.09 -9.29,-6.2 -9.29,-9.29l2.32 -4.65c0,-9.29 5.42,-13.93 16.27,-13.93l394.97 0c7.74,0 11.61,4.63 11.61,13.93l-2.32 4.65c0,1.54 -7.36,5.03 -22.08,10.47 -14.71,5.41 -27.11,18.57 -37.17,39.49 -10.07,20.9 -10.46,52.28 -1.17,94.07l81.32 508.85c0,3.09 1.55,4.63 4.65,4.63 1.55,0 3.87,-1.54 6.97,-4.63 23.23,-43.38 58.85,-110.76 106.87,-202.14 48.02,-91.39 87.51,-165.75 118.49,-223.04l44.14 -85.99c10.37,-17.75 17.89,-33.74 22.59,-47.95 44.3,13.7 88.98,26.48 133.94,38.04z"/>
  <path class="fil1" d="M4532.7 2655.86c65.06,74.38 86.74,170.4 65.06,288.12 -20.14,114.62 -73.18,209.88 -159.15,285.77 -85.97,75.9 -187.04,113.84 -303.19,113.84 -111.54,0 -198.27,-35.62 -260.24,-106.87 -63.49,-74.35 -84.41,-171.93 -62.73,-292.74 21.7,-114.63 75.52,-209.51 161.48,-284.62 85.97,-75.12 186.26,-112.68 300.87,-112.68 113.08,0 199.04,36.38 257.9,109.17zm-274.15 -11.61c-29.43,0 -60.42,29.44 -92.93,88.3 -32.53,58.86 -56.55,129.34 -72.03,211.43 -13.94,80.54 -15.12,151 -3.49,211.42 11.61,60.42 32.13,90.61 61.57,90.61 30.98,0 62.73,-30.19 95.25,-90.61 32.53,-60.42 55.77,-130.88 69.71,-211.42 15.49,-80.54 17.42,-150.65 5.81,-210.29 -11.61,-59.62 -32.91,-89.44 -63.89,-89.44z"/>
  <path class="fil1" d="M5418.21 2567.59l-2.33 9.28c0,3.11 -3.87,6.2 -11.61,9.29 -7.74,3.09 -17.03,8.9 -27.88,17.42 -10.85,8.53 -20.13,19.76 -27.88,33.72 -1.54,3.09 -58.08,99.88 -169.6,290.4 -178.12,315.97 -292.74,518.89 -343.86,608.73 -79.01,139.4 -175.81,209.11 -290.42,209.11 -17.04,0 -30.21,-0.78 -39.49,-2.32 -65.06,-7.76 -115.4,-40.29 -151.02,-97.58 -35.62,-57.33 -37.18,-120.84 -4.65,-190.54 18.59,-37.17 45.7,-64.28 81.32,-81.32 20.14,-10.83 43.36,-16.25 69.69,-16.25 23.24,0 42.6,3.86 58.09,11.61 32.52,15.49 54.97,37.17 67.37,65.06 12.4,27.89 13.94,52.67 4.65,74.35 0,6.19 -3.1,7.76 -9.29,4.64 -1.55,0 -3.88,-0.37 -6.98,-1.15 -3.09,-0.79 -5.42,-1.17 -6.96,-1.17 -23.24,0 -40.27,12.4 -51.12,37.17 -9.29,30.99 0,50.34 27.88,58.08 1.55,0 3.87,0.41 6.97,1.18 3.1,0.78 5.42,1.15 6.97,1.15 27.88,0 54.98,-22.46 81.31,-67.37 24.78,-43.38 54.98,-95.27 90.61,-155.67 24.79,-38.73 30.98,-76.67 18.59,-113.84l-116.17 -541.34c1.55,-3.13 1.55,-6.2 0,-9.29l-18.59 -85.99c-3.09,-10.82 -7.74,-20.11 -13.93,-27.87 -6.19,-7.76 -12.01,-13.16 -17.42,-16.26 -5.42,-3.11 -9.68,-5.81 -12.78,-8.15 -3.09,-2.32 -4.65,-4.23 -4.65,-5.81l2.33 -11.63c0,-4.63 3.87,-6.95 11.61,-6.95l404.27 0c3.09,0 4.65,2.32 4.65,6.95l-2.33 9.31c0,3.11 -6.58,6.98 -19.75,11.61 -13.16,4.66 -25.17,15.48 -36,32.53 -10.85,17.03 -13.94,41.83 -9.29,74.34l55.77 269.52c52.66,-91.39 98.34,-171.92 137.07,-241.61l4.65 -4.66c10.83,-18.57 18.59,-35.23 23.22,-49.93 4.66,-14.74 6.98,-26.36 6.98,-34.86 0,-8.52 -1.54,-16.27 -4.65,-23.24 -3.09,-6.98 -6.96,-12.01 -11.61,-15.1 -4.65,-3.09 -8.91,-5.42 -12.78,-6.98 -3.87,-1.55 -7.36,-3.49 -10.45,-5.81 -3.09,-2.33 -4.65,-4.27 -4.65,-5.81l2.33 -9.31c0,-4.63 3.09,-6.95 9.28,-6.95l255.57 0c4.65,0 6.98,3.09 6.98,9.29z"/>
  <path class="fil1" d="M5976.71 3262.28c4.65,0 5.42,3.1 2.32,9.29 -7.74,17.03 -25.55,31.75 -53.44,44.13 -27.88,12.39 -57.31,18.6 -88.28,18.6 -48.01,0 -87.13,-17.03 -117.33,-51.1 -30.22,-34.09 -39.89,-82.1 -29.04,-144.06l44.14 -246.3c-4.65,4.66 -16.26,13.16 -34.86,25.59 -94.47,61.95 -147.14,126.22 -157.98,192.83 -12.4,61.95 4.65,100.66 51.1,116.17 1.55,0 3.88,0.37 6.98,1.15 3.09,0.79 6.19,1.17 9.29,1.17 6.2,0 17.03,-1.55 32.53,-4.65l4.63 0c6.2,0 10.85,1.55 13.94,4.65 3.11,6.19 2.33,11.61 -2.32,16.26 -17.03,27.88 -46.85,51.11 -89.46,69.69 -42.59,18.6 -81.7,27.89 -117.33,27.89 -66.6,-3.09 -120.04,-24.01 -160.31,-62.74 -40.27,-38.72 -52.66,-90.61 -37.17,-155.66 12.39,-57.32 41.04,-103 85.96,-137.09 44.92,-34.05 113.07,-68.91 204.45,-104.56l34.86 -13.93c109.97,-43.36 171.92,-90.6 185.86,-141.74 6.2,-23.22 3.87,-44.92 -6.96,-65.03 -12.39,-13.94 -30.99,-20.92 -55.77,-20.92 -27.88,0 -49.57,9.31 -65.06,27.87 -13.94,12.39 -22.45,27.12 -25.56,44.14 -3.09,29.46 6.98,46.47 30.22,51.12 3.09,0 4.63,3.11 4.63,9.29 -7.74,20.14 -25.16,39.11 -52.26,56.94 -27.11,17.8 -58.48,26.69 -94.11,26.69 -49.57,0 -84.41,-14.72 -104.55,-44.12 -17.03,-23.24 -21.68,-50.36 -13.93,-81.32 17.03,-63.53 60.8,-110.76 131.27,-141.72 70.47,-30.99 142.12,-46.47 214.9,-46.47 122.37,0 208.34,31.74 257.91,95.26 40.27,52.64 51.1,122.35 32.53,209.1 -1.55,10.85 -4.65,27.49 -9.29,49.95 -4.65,22.46 -8.53,39.11 -11.63,49.95 -10.83,46.47 -18.97,83.27 -24.39,110.36 -5.42,27.11 -10.45,57.69 -15.1,91.77 -4.65,34.07 -5.42,60.4 -2.32,79.01 3.09,18.58 10.06,29.43 20.9,32.52z"/>
  <path class="fil1" d="M6615.07 3232.07c122.37,43.37 168.83,129.33 139.41,257.89 -17.03,72.8 -62.35,135.15 -135.92,187.05 -73.58,51.88 -172.33,77.83 -296.24,77.83 -4.65,0 -12.78,-0.4 -24.39,-1.17 -11.62,-0.77 -20.52,-1.14 -26.73,-1.14 -92.93,-4.66 -168.83,-28.26 -227.68,-70.87 -58.86,-42.6 -80.54,-94.09 -65.06,-154.51 23.24,-86.74 82.87,-130.11 178.9,-130.11 40.27,1.55 70.09,13.16 89.44,34.85 19.37,21.69 28.28,44.15 26.73,67.39 0,4.64 -3.09,7.76 -9.29,9.29 -12.39,1.55 -24.39,7.76 -36,18.58 -11.63,10.83 -18.21,23.24 -19.76,37.19 -1.55,21.67 9.68,39.49 33.68,53.42 24.01,13.94 54.61,21.7 91.79,23.24 103.76,0 172.7,-24 206.78,-72.01 18.57,-27.88 23.22,-50.34 13.93,-67.39 -13.93,-34.09 -52.66,-55.77 -116.17,-65.06 -1.54,0 -39.49,-7.74 -113.85,-23.22l-111.5 -25.58 -32.53 -6.95c-58.86,-12.4 -97.98,-37.57 -117.33,-75.52 -19.36,-37.94 -22.85,-78.61 -10.46,-121.98 9.29,-32.53 26.73,-61.95 52.28,-88.3 25.56,-26.33 48.41,-41.81 68.54,-46.45 -63.5,-52.67 -88.28,-123.16 -74.34,-211.42 17.03,-91.39 67.76,-162.64 152.19,-213.76 84.41,-51.12 176.19,-76.66 275.32,-76.66 -1.55,-17.07 0.76,-38.73 6.96,-65.08 34.07,-105.32 119.26,-157.96 255.57,-157.96 66.6,1.52 113.46,18.56 140.56,51.09 27.11,32.53 37.56,64.3 31.37,95.26 -6.2,34.07 -21.3,60.8 -45.32,80.16 -24,19.35 -53.82,29.04 -89.44,29.04 -55.77,0 -88.3,-15.5 -97.6,-46.46 0,-3.13 1.55,-6.22 4.65,-9.29 18.59,-6.22 29.44,-21.7 32.53,-46.47 0,-9.31 -4.25,-19.37 -12.78,-30.22 -8.52,-10.85 -21.29,-16.26 -38.32,-16.26 -30.98,0 -53.45,15.48 -67.38,46.47 -15.5,44.92 -6.98,74.34 25.55,88.27 52.66,15.51 92.15,35.66 118.48,60.43 66.62,55.75 91.39,126.22 74.36,211.43 -15.5,94.49 -66.22,166.5 -152.19,216.06 -85.97,49.57 -180.06,74.34 -282.28,74.34 -74.36,0 -138.63,-12.39 -192.84,-37.18 3.09,32.55 43.36,58.86 120.82,79.01 32.51,7.74 69.69,16.65 111.52,26.72 41.83,10.06 73.56,17.42 95.26,22.06 21.68,4.65 37.94,9.3 48.79,13.94zm-27.88 -549.47c-13.94,-42.62 -35.62,-63.91 -65.06,-63.91 -29.42,0 -58.84,21.7 -88.28,65.06 -29.42,43.35 -49.57,94.49 -60.4,153.35 -10.85,58.86 -8.91,109.97 5.81,153.34 14.72,43.36 36.78,65.04 66.22,65.04 29.42,0 58.46,-21.28 87.13,-63.89 28.64,-42.59 48.41,-94.09 59.24,-154.49 10.83,-60.43 9.29,-111.92 -4.65,-154.51z"/>
  <path class="fil1" d="M7616.73 2655.86c57.31,68.17 75.12,159.57 53.44,274.16 -1.55,9.29 -9.29,13.96 -23.24,13.96l-9.28 0 -425.2 2.32 0 4.65c-6.19,69.69 3.87,123.92 30.2,162.63 26.35,38.73 62.73,57.32 109.21,55.78 74.36,-4.65 129.33,-41.06 164.96,-109.2 18.59,-30.98 41.83,-46.47 69.71,-46.47 7.74,0 13.16,0.78 16.26,2.33 29.42,7.72 38.73,28.64 27.88,62.71 -21.68,77.46 -70.87,140.96 -147.54,190.53 -76.67,49.58 -156.82,74.35 -240.47,74.35 -123.91,0 -215.3,-35.62 -274.15,-106.87 -63.51,-74.35 -84.43,-171.93 -62.73,-292.74 21.68,-113.09 74.72,-207.56 159.15,-283.46 84.41,-75.91 183.15,-113.84 296.23,-113.84 114.61,0 199.82,36.38 255.57,109.17zm-260.22 -11.61c-23.24,0 -47.23,19.75 -72.03,59.26 -24.77,39.49 -44.14,88.68 -58.08,147.54l185.88 0c12.39,-63.53 12.77,-113.87 1.16,-151.03 -11.61,-37.16 -30.6,-55.77 -56.93,-55.77z"/>
  <path class="fil2" d="M2148.75 1135.28c-1.21,-99.01 103.38,-208.09 185.53,-254.04 107.65,-60.23 223.5,-77.21 345.62,-74.74 224.89,4.56 427.13,49.34 634.74,116.71 -1.68,-51.89 -7.57,-103.65 -20.37,-155.17 -44.4,-178.77 -162.42,-376.43 -352.82,-424.71 -25.17,-6.4 -43.82,-23.68 -52.03,-48.33 -8.22,-24.64 -3.72,-49.67 12.58,-69.91 62.11,-77.09 212.22,-94.57 304.84,-77.72 121.52,22.16 221.33,82.67 314.06,162.48 170.49,146.74 297.89,310.06 415.05,494.21 31.75,-41.07 60.18,-84.71 83.13,-132.61 79.6,-166.1 114.48,-393.66 -1.56,-552.14 -15.34,-20.95 -18.67,-46.19 -9.33,-70.4 9.35,-24.23 28.76,-40.66 54.21,-45.87 96.99,-19.89 223.86,62.22 284.51,134.2 79.6,94.48 117.99,204.71 138.67,325.27 38.02,221.72 32.24,428.75 5.29,645.37 50.64,-11.46 100.34,-27 148.52,-49.3 167.18,-77.39 338.99,-230.62 350.44,-426.7 1.51,-25.95 14.99,-47.5 37.64,-60.23 22.63,-12.73 48.07,-13.04 71.01,-0.84 87.44,46.41 132.97,190.52 133.9,284.65 1.22,123.53 -39.38,232.98 -100.23,339.13 -111.88,195.11 -248.19,351.09 -406.92,500.93 46.33,23.41 94.57,43.07 145.93,56.56 178.16,46.81 408.2,38.08 541.91,-105.83 17.69,-19 41.81,-27.06 67.38,-22.46 25.55,4.61 45.36,20.57 55.29,44.56 37.86,91.49 -18.8,231.6 -78.04,304.77 -77.73,96 -178.73,154.55 -293.23,197.62 -249.13,93.73 -489.7,123.36 -754.01,133.27 -110.42,4.17 -224.53,-1.71 -334.39,-12.92 -108.77,-11.1 -224.54,-28.31 -329.47,-59.43 -35.02,-10.37 -69.78,-24.77 -103.64,-38.52 -214.51,-87.07 -426.94,-354.14 -555.71,-541.68 -85.97,-125.16 -166.24,-255.58 -290.28,-347.36 -148.11,-109.54 -365,-186.75 -542.52,-102.77 -23.47,11.1 -48.87,9.64 -70.89,-4.12 -22.04,-13.76 -34.49,-35.93 -34.81,-61.91z"/>
  <path class="fil1" d="M3314.33 1000.99c-210.57,-70.05 -409.15,-115.86 -635.92,-120.45 -119.45,-2.42 -218.25,15.12 -307.96,65.3 -72.92,40.8 -148.36,130.36 -147.65,188.53 184.88,-87.49 423.13,-34.14 618.21,110.18 205.8,152.25 284.51,378.43 490.19,599.68 -5.58,-25.15 -8.5,-51.39 -9.13,-77.93 -42.16,-184.94 -42.33,-352.61 -25.19,-545.57 6.51,-73.23 14.82,-146.58 17.45,-219.73z"/>
  <path class="fil1" d="M3366.15 750.19c16.67,67.13 22.76,132.48 23.11,198.08 0.13,25.83 -0.63,51.71 -1.96,77.75 -8.21,159.16 -38.6,324.3 -23.44,523.18 4.39,-11.73 9.19,-23.36 14.41,-34.86 68.33,-150.87 151.27,-269.46 253.76,-385.03 16.85,-18.99 34.22,-37.92 52.16,-56.89 15.78,-16.69 31.98,-33.43 48.62,-50.29 51.65,-52.3 104.75,-103.56 153.37,-158.3 -117.73,-188.11 -241.66,-349.89 -413.58,-497.86 -90.56,-77.93 -177.89,-127.31 -279.02,-145.76 -82.21,-14.96 -197.41,6.04 -233.92,51.35 198.27,50.28 347.98,243.11 406.49,478.64z"/>
  <path class="fil1" d="M3926.51 929.58c-54.13,59.05 -113.51,115.69 -173.81,178.11 -17.49,18.12 -35.06,36.71 -52.59,56.01 -42.29,46.5 -84.41,97.01 -124.84,154.32 -0.12,0.17 -0.25,0.35 -0.37,0.51 -45.98,65.26 -89.76,139.34 -129.17,226.36 -5.51,12.15 -10.44,24.35 -14.82,36.55 -0.14,0.36 -0.27,0.72 -0.4,1.1 -31.55,88.48 -33.76,177.37 -10.82,259.53 0.19,0.72 0.4,1.43 0.61,2.16 1.34,4.69 2.75,9.35 4.26,14.01 6.22,19.24 14.04,37.49 23.24,54.7 30.98,58.05 77.4,104.54 129.58,139.2 0.7,0.44 1.41,0.94 2.12,1.39 0.34,0.24 0.68,0.46 1.04,0.68 20.69,13.5 42.27,25.15 64.12,34.95 63.53,28.45 129.36,41.09 182.7,37.42 138.61,-9.51 222.86,-39.75 330.74,-206.02 16.6,-25.57 39.55,-60.84 53.79,-88.28 19.48,-37.58 38.57,-80.97 56.78,-127.78 2.23,-5.75 4.46,-11.55 6.68,-17.43 18.63,-49.32 36.22,-101.98 52.19,-155.25 7.33,-24.41 14.31,-48.94 20.89,-73.37 23.19,-85.93 41.49,-170.24 52.44,-241.56 0.95,-6.09 1.86,-12.18 2.78,-18.25 3.85,-25.71 7.47,-51.15 10.79,-76.4 29.03,-220.01 36.5,-423.66 -1.83,-647.21 -20.19,-117.75 -56.06,-211.48 -122.3,-290.09 -53.84,-63.89 -156.04,-121.06 -213.04,-109.36 120.84,165.03 113.47,409.04 8.59,627.87 -29.89,62.37 -66.81,116.63 -108.33,167.44 -16.34,20 -33.4,39.49 -51.02,58.69z"/>
  <path class="fil1" d="M4670.51 1125.75c-62.74,29.04 -125.78,47.38 -190.14,60.1 -2.02,14.04 -4.14,28.14 -6.3,42.29 -13.9,90.37 -35,181.95 -59.88,270.8 -5.19,18.51 -10.54,36.89 -16,55.12 -1.88,6.27 -3.79,12.54 -5.72,18.83 -30.4,99.03 -67.49,202.12 -114.86,293.47 -16.81,32.43 -37.5,63.86 -57.4,94.5 -10.07,15.52 -20.03,30.16 -29.98,43.94 140.61,-80.37 293.63,-191.16 396.21,-282.56 4.6,-4.12 9.19,-8.2 13.76,-12.32 19.35,-17.37 38.34,-34.68 56.97,-52.01 162.48,-151.17 297.95,-303.42 410.75,-500.18 59.42,-103.65 91.44,-198.77 90.43,-301.54 -0.8,-83.55 -43.2,-192.72 -94.59,-220.02 -11.93,204.21 -173.01,387.64 -393.25,489.57z"/>
  <path class="fil1" d="M4852.36 1823.67c-66.89,-17.56 -127.16,-43.58 -184.89,-74.75 -10.49,9.55 -21.09,19.05 -31.78,28.59 -82.48,73.5 -174.23,141.65 -266.06,202.97 -90.94,60.71 -191.13,121.16 -291.84,164.01 -33.62,14.28 -69.58,25.32 -104.45,36.3 -16.87,5.31 -34,10.28 -51.3,14.74 159.66,27.58 348.28,39.63 485.63,34.48 260.18,-9.76 488.35,-37.41 730.72,-128.58 111.83,-42.1 197.08,-95.04 261.76,-174.92 52.58,-64.94 89.42,-176.09 67.17,-229.86 -139.23,149.82 -380.25,188.68 -614.96,127.03z"/>
 </g>
</svg>
